<svg id="File_management" height="512" viewBox="0 0 64 64" width="512" xmlns="http://www.w3.org/2000/svg" data-name="File management"><path d="m25 7h36v54h-36z" fill="#ffcd25"/><path d="m57 57h-42v-54h30l12 13z" fill="#ffe027"/><path d="m57 16h-12v-13z" fill="#ffe464"/><path d="m3 26h36v6h-36z" fill="#acabb1"/><path d="m35 61h-28l-2-29h32z" fill="#d8d7da"/><path d="m12 22v4h4v-4h10v4h4v-4a4 4 0 0 0 -4-4h-10a4 4 0 0 0 -4 4z" fill="#e8e5fb"/><g fill="#787680"><path d="m11 37h4v19h-4z"/><path d="m19 37h4v19h-4z"/><path d="m27 37h4v19h-4z"/></g><path d="m20 7h6v2h-6z" fill="#1a6fb0"/><path d="m29 7h12v2h-12z" fill="#1a6fb0"/><path d="m20 12h21v2h-21z" fill="#1a6fb0"/></svg>